<svg width="250" height="22" viewBox="0 0 250 22" fill="none" xmlns="http://www.w3.org/2000/svg">
<rect x="236" y="5" width="14" height="2" rx="1" fill="#31456A"/>
<rect x="239" y="10" width="8" height="2" rx="1" fill="#31456A"/>
<rect x="241" y="15" width="4" height="2" rx="1" fill="#31456A"/>
<path d="M5.45312 17H3.58594V7.17969H0.226562V5.57812H8.8125V7.17969H5.45312V17ZM14.7578 8.20312C15.1276 8.20312 15.4323 8.22917 15.6719 8.28125L15.4922 9.99219C15.2318 9.92969 14.9609 9.89844 14.6797 9.89844C13.9453 9.89844 13.349 10.138 12.8906 10.6172C12.4375 11.0964 12.2109 11.7188 12.2109 12.4844V17H10.375V8.35938H11.8125L12.0547 9.88281H12.1484C12.4349 9.36719 12.8073 8.95833 13.2656 8.65625C13.7292 8.35417 14.2266 8.20312 14.7578 8.20312ZM22.6875 17L22.3203 15.7969H22.2578C21.8411 16.3229 21.4219 16.6823 21 16.875C20.5781 17.0625 20.0365 17.1562 19.375 17.1562C18.526 17.1562 17.862 16.9271 17.3828 16.4688C16.9089 16.0104 16.6719 15.362 16.6719 14.5234C16.6719 13.6328 17.0026 12.9609 17.6641 12.5078C18.3255 12.0547 19.3333 11.8073 20.6875 11.7656L22.1797 11.7188V11.2578C22.1797 10.7057 22.0495 10.2943 21.7891 10.0234C21.5339 9.7474 21.1354 9.60938 20.5938 9.60938C20.151 9.60938 19.7266 9.67448 19.3203 9.80469C18.9141 9.9349 18.5234 10.0885 18.1484 10.2656L17.5547 8.95312C18.0234 8.70833 18.5365 8.52344 19.0938 8.39844C19.651 8.26823 20.1771 8.20312 20.6719 8.20312C21.7708 8.20312 22.599 8.44271 23.1562 8.92188C23.7188 9.40104 24 10.1536 24 11.1797V17H22.6875ZM19.9531 15.75C20.6198 15.75 21.1536 15.5651 21.5547 15.1953C21.9609 14.8203 22.1641 14.2969 22.1641 13.625V12.875L21.0547 12.9219C20.1901 12.9531 19.5599 13.099 19.1641 13.3594C18.7734 13.6146 18.5781 14.0078 18.5781 14.5391C18.5781 14.9245 18.6927 15.224 18.9219 15.4375C19.151 15.6458 19.4948 15.75 19.9531 15.75ZM34.1641 17H32.3203V11.6875C32.3203 11.0208 32.1849 10.5234 31.9141 10.1953C31.6484 9.86719 31.224 9.70312 30.6406 9.70312C29.8646 9.70312 29.2969 9.93229 28.9375 10.3906C28.5781 10.849 28.3984 11.6172 28.3984 12.6953V17H26.5625V8.35938H28L28.2578 9.49219H28.3516C28.612 9.08073 28.9818 8.76302 29.4609 8.53906C29.9401 8.3151 30.4714 8.20312 31.0547 8.20312C33.1276 8.20312 34.1641 9.25781 34.1641 11.3672V17ZM42.5234 14.5391C42.5234 15.3828 42.2161 16.0312 41.6016 16.4844C40.987 16.9323 40.1068 17.1562 38.9609 17.1562C37.8099 17.1562 36.8854 16.9818 36.1875 16.6328V15.0469C37.2031 15.5156 38.1484 15.75 39.0234 15.75C40.1536 15.75 40.7188 15.4089 40.7188 14.7266C40.7188 14.5078 40.6562 14.3255 40.5312 14.1797C40.4062 14.0339 40.2005 13.8828 39.9141 13.7266C39.6276 13.5703 39.2292 13.3932 38.7188 13.1953C37.724 12.8099 37.0495 12.4245 36.6953 12.0391C36.3464 11.6536 36.1719 11.1536 36.1719 10.5391C36.1719 9.79948 36.4688 9.22656 37.0625 8.82031C37.6615 8.40885 38.474 8.20312 39.5 8.20312C40.5156 8.20312 41.4766 8.40885 42.3828 8.82031L41.7891 10.2031C40.8568 9.81771 40.0729 9.625 39.4375 9.625C38.4688 9.625 37.9844 9.90104 37.9844 10.4531C37.9844 10.724 38.1094 10.9531 38.3594 11.1406C38.6146 11.3281 39.1667 11.5859 40.0156 11.9141C40.7292 12.1901 41.2474 12.4427 41.5703 12.6719C41.8932 12.901 42.1328 13.1667 42.2891 13.4688C42.4453 13.7656 42.5234 14.1224 42.5234 14.5391ZM48.2891 17.1562C46.9453 17.1562 45.8932 16.7656 45.1328 15.9844C44.3776 15.1979 44 14.1172 44 12.7422C44 11.3307 44.3516 10.2214 45.0547 9.41406C45.7578 8.60677 46.724 8.20312 47.9531 8.20312C49.0938 8.20312 49.9948 8.54948 50.6562 9.24219C51.3177 9.9349 51.6484 10.888 51.6484 12.1016V13.0938H45.8906C45.9167 13.9323 46.1432 14.5781 46.5703 15.0312C46.9974 15.4792 47.599 15.7031 48.375 15.7031C48.8854 15.7031 49.3594 15.6562 49.7969 15.5625C50.2396 15.4635 50.7135 15.3021 51.2188 15.0781V16.5703C50.7708 16.7839 50.3177 16.9349 49.8594 17.0234C49.401 17.112 48.8776 17.1562 48.2891 17.1562ZM47.9531 9.59375C47.3698 9.59375 46.901 9.77865 46.5469 10.1484C46.1979 10.5182 45.9896 11.0573 45.9219 11.7656H49.8438C49.8333 11.0521 49.6615 10.513 49.3281 10.1484C48.9948 9.77865 48.5365 9.59375 47.9531 9.59375ZM57.2188 17.1562C55.9115 17.1562 54.9167 16.776 54.2344 16.0156C53.5573 15.25 53.2188 14.1536 53.2188 12.7266C53.2188 11.2734 53.5729 10.1562 54.2812 9.375C54.9948 8.59375 56.0234 8.20312 57.3672 8.20312C58.2786 8.20312 59.099 8.3724 59.8281 8.71094L59.2734 10.1875C58.4974 9.88542 57.8568 9.73438 57.3516 9.73438C55.8568 9.73438 55.1094 10.7266 55.1094 12.7109C55.1094 13.6797 55.2943 14.4089 55.6641 14.8984C56.0391 15.3828 56.5859 15.625 57.3047 15.625C58.1224 15.625 58.8958 15.4219 59.625 15.0156V16.6172C59.2969 16.8099 58.9453 16.9479 58.5703 17.0312C58.2005 17.1146 57.75 17.1562 57.2188 17.1562ZM64.875 15.6719C65.3229 15.6719 65.7708 15.6016 66.2188 15.4609V16.8438C66.0156 16.9323 65.7526 17.0052 65.4297 17.0625C65.112 17.125 64.7812 17.1562 64.4375 17.1562C62.6979 17.1562 61.8281 16.2396 61.8281 14.4062V9.75H60.6484V8.9375L61.9141 8.26562L62.5391 6.4375H63.6719V8.35938H66.1328V9.75H63.6719V14.375C63.6719 14.8177 63.7812 15.1458 64 15.3594C64.224 15.5677 64.5156 15.6719 64.875 15.6719ZM69.7891 17H67.9531V8.35938H69.7891V17ZM67.8438 6.07031C67.8438 5.74219 67.9323 5.48958 68.1094 5.3125C68.2917 5.13542 68.5495 5.04688 68.8828 5.04688C69.2057 5.04688 69.4557 5.13542 69.6328 5.3125C69.8151 5.48958 69.9062 5.74219 69.9062 6.07031C69.9062 6.38281 69.8151 6.63021 69.6328 6.8125C69.4557 6.98958 69.2057 7.07812 68.8828 7.07812C68.5495 7.07812 68.2917 6.98958 68.1094 6.8125C67.9323 6.63021 67.8438 6.38281 67.8438 6.07031ZM80.0859 12.6641C80.0859 14.0755 79.724 15.1771 79 15.9688C78.276 16.7604 77.2682 17.1562 75.9766 17.1562C75.1693 17.1562 74.4557 16.974 73.8359 16.6094C73.2161 16.2448 72.7396 15.7214 72.4062 15.0391C72.0729 14.3568 71.9062 13.5651 71.9062 12.6641C71.9062 11.263 72.2656 10.1693 72.9844 9.38281C73.7031 8.59635 74.7161 8.20312 76.0234 8.20312C77.2734 8.20312 78.263 8.60677 78.9922 9.41406C79.7214 10.2161 80.0859 11.2995 80.0859 12.6641ZM73.7969 12.6641C73.7969 14.6589 74.5339 15.6562 76.0078 15.6562C77.4661 15.6562 78.1953 14.6589 78.1953 12.6641C78.1953 10.6901 77.4609 9.70312 75.9922 9.70312C75.2214 9.70312 74.6615 9.95833 74.3125 10.4688C73.9688 10.9792 73.7969 11.7109 73.7969 12.6641ZM89.8047 17H87.9609V11.6875C87.9609 11.0208 87.8255 10.5234 87.5547 10.1953C87.2891 9.86719 86.8646 9.70312 86.2812 9.70312C85.5052 9.70312 84.9375 9.93229 84.5781 10.3906C84.2188 10.849 84.0391 11.6172 84.0391 12.6953V17H82.2031V8.35938H83.6406L83.8984 9.49219H83.9922C84.2526 9.08073 84.6224 8.76302 85.1016 8.53906C85.5807 8.3151 86.112 8.20312 86.6953 8.20312C88.7682 8.20312 89.8047 9.25781 89.8047 11.3672V17ZM98.1641 14.5391C98.1641 15.3828 97.8568 16.0312 97.2422 16.4844C96.6276 16.9323 95.7474 17.1562 94.6016 17.1562C93.4505 17.1562 92.526 16.9818 91.8281 16.6328V15.0469C92.8438 15.5156 93.7891 15.75 94.6641 15.75C95.7943 15.75 96.3594 15.4089 96.3594 14.7266C96.3594 14.5078 96.2969 14.3255 96.1719 14.1797C96.0469 14.0339 95.8411 13.8828 95.5547 13.7266C95.2682 13.5703 94.8698 13.3932 94.3594 13.1953C93.3646 12.8099 92.6901 12.4245 92.3359 12.0391C91.987 11.6536 91.8125 11.1536 91.8125 10.5391C91.8125 9.79948 92.1094 9.22656 92.7031 8.82031C93.3021 8.40885 94.1146 8.20312 95.1406 8.20312C96.1562 8.20312 97.1172 8.40885 98.0234 8.82031L97.4297 10.2031C96.4974 9.81771 95.7135 9.625 95.0781 9.625C94.1094 9.625 93.625 9.90104 93.625 10.4531C93.625 10.724 93.75 10.9531 94 11.1406C94.2552 11.3281 94.8073 11.5859 95.6562 11.9141C96.3698 12.1901 96.888 12.4427 97.2109 12.6719C97.5339 12.901 97.7734 13.1667 97.9297 13.4688C98.0859 13.7656 98.1641 14.1224 98.1641 14.5391Z" fill="#31456A"/>
</svg>
