<svg width="250" height="150" viewBox="0 0 250 150" fill="none" xmlns="http://www.w3.org/2000/svg">
<rect width="250" height="150" rx="20" fill="url(#paint0_linear_2_408)"/>
<mask id="mask0_2_408" style="mask-type:alpha" maskUnits="userSpaceOnUse" x="0" y="0" width="250" height="150">
<rect width="250" height="150" rx="20" fill="url(#paint1_linear_2_408)"/>
</mask>
<g mask="url(#mask0_2_408)">
<circle cx="39.5" cy="-4.5" r="38" stroke="#9487EA"/>
<circle cx="46.5" cy="-8.5" r="38" stroke="#9487EA"/>
<circle cx="53.5" cy="-12.5" r="38" stroke="#9487EA"/>
<circle cx="60.5" cy="-16.5" r="38" stroke="#9487EA"/>
<circle cx="67.5" cy="-20.5" r="38" stroke="#9487EA"/>
<circle cx="157.995" cy="117.277" r="38" transform="rotate(65 157.995 117.277)" stroke="#6657D2"/>
<circle cx="164.578" cy="121.93" r="38" transform="rotate(65 164.578 121.93)" stroke="#6657D2"/>
<circle cx="171.162" cy="126.584" r="38" transform="rotate(65 171.162 126.584)" stroke="#6657D2"/>
<circle cx="177.745" cy="131.238" r="38" transform="rotate(65 177.745 131.238)" stroke="#6657D2"/>
<circle cx="184.329" cy="135.891" r="38" transform="rotate(65 184.329 135.891)" stroke="#6657D2"/>
<circle cx="190.912" cy="140.545" r="38" transform="rotate(65 190.912 140.545)" stroke="#6657D2"/>
<circle cx="197.496" cy="145.199" r="38" transform="rotate(65 197.496 145.199)" stroke="#6657D2"/>
<circle cx="204.079" cy="149.853" r="38" transform="rotate(65 204.079 149.853)" stroke="#6657D2"/>
</g>
<path d="M21.0586 102.861H21.9521L19.3789 110H18.5586L16 102.861H16.8789L18.5195 107.48C18.7083 108.011 18.8581 108.527 18.9688 109.028C19.0859 108.501 19.2389 107.975 19.4277 107.451L21.0586 102.861ZM27.4258 110L26.5371 107.729H23.6758L22.7969 110H21.957L24.7793 102.832H25.4775L28.2852 110H27.4258ZM26.2783 106.982L25.4482 104.771C25.3408 104.491 25.2301 104.147 25.1162 103.74C25.0446 104.053 24.9421 104.396 24.8086 104.771L23.9688 106.982H26.2783ZM29.2666 110V102.861H30.0967V109.248H33.2461V110H29.2666ZM34.4619 110V102.861H35.292V110H34.4619ZM42.9531 106.362C42.9531 107.541 42.6325 108.442 41.9912 109.067C41.3532 109.689 40.4336 110 39.2324 110H37.2549V102.861H39.4424C40.5524 102.861 41.415 103.169 42.0303 103.784C42.6455 104.399 42.9531 105.259 42.9531 106.362ZM42.0742 106.392C42.0742 105.461 41.8398 104.759 41.3711 104.287C40.9056 103.815 40.2122 103.579 39.291 103.579H38.085V109.282H39.0957C40.0853 109.282 40.8291 109.04 41.3271 108.555C41.8252 108.066 42.0742 107.345 42.0742 106.392ZM49.3447 110H48.5146V103.599H46.2539V102.861H51.6055V103.599H49.3447V110ZM58.1045 110H57.2744V106.641H53.5146V110H52.6846V102.861H53.5146V105.898H57.2744V102.861H58.1045V110ZM65.458 102.861V107.48C65.458 108.294 65.2122 108.934 64.7207 109.399C64.2292 109.865 63.5537 110.098 62.6943 110.098C61.835 110.098 61.1693 109.863 60.6973 109.395C60.2285 108.926 59.9941 108.281 59.9941 107.461V102.861H60.8242V107.52C60.8242 108.115 60.987 108.573 61.3125 108.892C61.638 109.211 62.1165 109.37 62.748 109.37C63.3503 109.37 63.8141 109.211 64.1396 108.892C64.4652 108.569 64.6279 108.109 64.6279 107.51V102.861H65.458ZM68.1826 107.031V110H67.3525V102.861H69.3105C70.1862 102.861 70.8324 103.029 71.249 103.364C71.6689 103.7 71.8789 104.204 71.8789 104.878C71.8789 105.822 71.4004 106.46 70.4434 106.792L72.3818 110H71.4004L69.6719 107.031H68.1826ZM68.1826 106.318H69.3203C69.9062 106.318 70.3359 106.203 70.6094 105.972C70.8828 105.737 71.0195 105.387 71.0195 104.922C71.0195 104.45 70.8796 104.11 70.5996 103.901C70.3229 103.693 69.877 103.589 69.2617 103.589H68.1826V106.318Z" fill="white"/>
<path d="M22.334 126.717C22.334 128.205 22.0938 129.311 21.6133 130.033C21.1367 130.756 20.4062 131.117 19.4219 131.117C18.4688 131.117 17.7461 130.744 17.2539 129.998C16.7617 129.252 16.5156 128.158 16.5156 126.717C16.5156 125.205 16.7539 124.092 17.2305 123.377C17.7109 122.658 18.4414 122.299 19.4219 122.299C20.3789 122.299 21.1035 122.674 21.5957 123.424C22.0879 124.174 22.334 125.271 22.334 126.717ZM17.9102 126.717C17.9102 127.885 18.0293 128.719 18.2676 129.219C18.5098 129.719 18.8945 129.969 19.4219 129.969C19.9492 129.969 20.334 129.715 20.5762 129.207C20.8223 128.699 20.9453 127.869 20.9453 126.717C20.9453 125.568 20.8223 124.738 20.5762 124.227C20.334 123.711 19.9492 123.453 19.4219 123.453C18.8945 123.453 18.5098 123.705 18.2676 124.209C18.0293 124.713 17.9102 125.549 17.9102 126.717ZM26.2773 122.322C27.0898 122.322 27.7324 122.51 28.2051 122.885C28.6777 123.256 28.9141 123.754 28.9141 124.379C28.9141 125.258 28.3867 125.957 27.332 126.477C28.0039 126.812 28.4805 127.166 28.7617 127.537C29.0469 127.908 29.1895 128.322 29.1895 128.779C29.1895 129.486 28.9297 130.053 28.4102 130.479C27.8906 130.904 27.1875 131.117 26.3008 131.117C25.3711 131.117 24.6504 130.918 24.1387 130.52C23.627 130.121 23.3711 129.557 23.3711 128.826C23.3711 128.35 23.5039 127.922 23.7695 127.543C24.0391 127.16 24.4785 126.82 25.0879 126.523C24.5645 126.211 24.1914 125.881 23.9688 125.533C23.7461 125.186 23.6348 124.795 23.6348 124.361C23.6348 123.74 23.8789 123.246 24.3672 122.879C24.8555 122.508 25.4922 122.322 26.2773 122.322ZM24.6895 128.779C24.6895 129.186 24.832 129.502 25.1172 129.729C25.4023 129.951 25.7891 130.062 26.2773 130.062C26.7812 130.062 27.1719 129.947 27.4492 129.717C27.7305 129.482 27.8711 129.166 27.8711 128.768C27.8711 128.451 27.7422 128.162 27.4844 127.9C27.2266 127.639 26.8359 127.396 26.3125 127.174L26.1426 127.098C25.627 127.324 25.2559 127.574 25.0293 127.848C24.8027 128.117 24.6895 128.428 24.6895 128.779ZM26.2656 123.383C25.875 123.383 25.5605 123.48 25.3223 123.676C25.084 123.867 24.9648 124.129 24.9648 124.461C24.9648 124.664 25.0078 124.846 25.0938 125.006C25.1797 125.166 25.3047 125.312 25.4688 125.445C25.6328 125.574 25.9102 125.73 26.3008 125.914C26.7695 125.707 27.0996 125.49 27.291 125.264C27.4863 125.033 27.584 124.766 27.584 124.461C27.584 124.129 27.4629 123.867 27.2207 123.676C26.9824 123.48 26.6641 123.383 26.2656 123.383ZM34.293 122.434L31.1055 131H29.8047L32.998 122.434H34.293ZM40.7324 131H34.9258V129.957L37.1348 127.736C37.7871 127.068 38.2188 126.596 38.4297 126.318C38.6445 126.037 38.8008 125.773 38.8984 125.527C38.9961 125.281 39.0449 125.018 39.0449 124.736C39.0449 124.35 38.9277 124.045 38.6934 123.822C38.4629 123.6 38.1426 123.488 37.7324 123.488C37.4043 123.488 37.0859 123.549 36.7773 123.67C36.4727 123.791 36.1191 124.01 35.7168 124.326L34.9727 123.418C35.4492 123.016 35.9121 122.73 36.3613 122.562C36.8105 122.395 37.2891 122.311 37.7969 122.311C38.5938 122.311 39.2324 122.52 39.7129 122.938C40.1934 123.352 40.4336 123.91 40.4336 124.613C40.4336 125 40.3633 125.367 40.2227 125.715C40.0859 126.062 39.873 126.422 39.584 126.793C39.2988 127.16 38.8223 127.658 38.1543 128.287L36.666 129.729V129.787H40.7324V131ZM47.5879 131H41.7812V129.957L43.9902 127.736C44.6426 127.068 45.0742 126.596 45.2852 126.318C45.5 126.037 45.6562 125.773 45.7539 125.527C45.8516 125.281 45.9004 125.018 45.9004 124.736C45.9004 124.35 45.7832 124.045 45.5488 123.822C45.3184 123.6 44.998 123.488 44.5879 123.488C44.2598 123.488 43.9414 123.549 43.6328 123.67C43.3281 123.791 42.9746 124.01 42.5723 124.326L41.8281 123.418C42.3047 123.016 42.7676 122.73 43.2168 122.562C43.666 122.395 44.1445 122.311 44.6523 122.311C45.4492 122.311 46.0879 122.52 46.5684 122.938C47.0488 123.352 47.2891 123.91 47.2891 124.613C47.2891 125 47.2188 125.367 47.0781 125.715C46.9414 126.062 46.7285 126.422 46.4395 126.793C46.1543 127.16 45.6777 127.658 45.0098 128.287L43.5215 129.729V129.787H47.5879V131Z" fill="white"/>
<path d="M89.0381 103.501C88.2536 103.501 87.6335 103.763 87.1777 104.287C86.7253 104.808 86.499 105.522 86.499 106.431C86.499 107.365 86.7171 108.088 87.1533 108.599C87.5928 109.106 88.2178 109.36 89.0283 109.36C89.5264 109.36 90.0944 109.271 90.7324 109.092V109.819C90.2376 110.005 89.6273 110.098 88.9014 110.098C87.8499 110.098 87.0378 109.779 86.4648 109.141C85.8952 108.503 85.6104 107.596 85.6104 106.421C85.6104 105.685 85.7471 105.041 86.0205 104.487C86.2972 103.934 86.6943 103.507 87.2119 103.208C87.7327 102.909 88.3447 102.759 89.0479 102.759C89.7965 102.759 90.4508 102.896 91.0107 103.169L90.6592 103.882C90.1188 103.628 89.5785 103.501 89.0381 103.501ZM96.7773 110L95.8887 107.729H93.0273L92.1484 110H91.3086L94.1309 102.832H94.8291L97.6367 110H96.7773ZM95.6299 106.982L94.7998 104.771C94.6924 104.491 94.5817 104.147 94.4678 103.74C94.3962 104.053 94.2936 104.396 94.1602 104.771L93.3203 106.982H95.6299ZM99.4482 107.031V110H98.6182V102.861H100.576C101.452 102.861 102.098 103.029 102.515 103.364C102.935 103.7 103.145 104.204 103.145 104.878C103.145 105.822 102.666 106.46 101.709 106.792L103.647 110H102.666L100.938 107.031H99.4482ZM99.4482 106.318H100.586C101.172 106.318 101.602 106.203 101.875 105.972C102.148 105.737 102.285 105.387 102.285 104.922C102.285 104.45 102.145 104.11 101.865 103.901C101.589 103.693 101.143 103.589 100.527 103.589H99.4482V106.318ZM110.498 106.362C110.498 107.541 110.177 108.442 109.536 109.067C108.898 109.689 107.979 110 106.777 110H104.8V102.861H106.987C108.097 102.861 108.96 103.169 109.575 103.784C110.19 104.399 110.498 105.259 110.498 106.362ZM109.619 106.392C109.619 105.461 109.385 104.759 108.916 104.287C108.451 103.815 107.757 103.579 106.836 103.579H105.63V109.282H106.641C107.63 109.282 108.374 109.04 108.872 108.555C109.37 108.066 109.619 107.345 109.619 106.392ZM120.112 110H119.282V106.641H115.522V110H114.692V102.861H115.522V105.898H119.282V102.861H120.112V110ZM128.271 106.421C128.271 107.563 127.982 108.462 127.402 109.116C126.826 109.771 126.024 110.098 124.995 110.098C123.944 110.098 123.132 109.777 122.559 109.136C121.989 108.491 121.704 107.583 121.704 106.411C121.704 105.249 121.991 104.349 122.563 103.711C123.136 103.07 123.95 102.749 125.005 102.749C126.03 102.749 126.831 103.075 127.407 103.726C127.983 104.377 128.271 105.275 128.271 106.421ZM122.583 106.421C122.583 107.388 122.788 108.122 123.198 108.623C123.612 109.121 124.211 109.37 124.995 109.37C125.786 109.37 126.383 109.121 126.787 108.623C127.191 108.125 127.393 107.391 127.393 106.421C127.393 105.461 127.191 104.733 126.787 104.238C126.387 103.74 125.793 103.491 125.005 103.491C124.214 103.491 123.612 103.742 123.198 104.243C122.788 104.741 122.583 105.467 122.583 106.421ZM129.868 110V102.861H130.698V109.248H133.848V110H129.868ZM140.762 106.362C140.762 107.541 140.441 108.442 139.8 109.067C139.162 109.689 138.242 110 137.041 110H135.063V102.861H137.251C138.361 102.861 139.224 103.169 139.839 103.784C140.454 104.399 140.762 105.259 140.762 106.362ZM139.883 106.392C139.883 105.461 139.648 104.759 139.18 104.287C138.714 103.815 138.021 103.579 137.1 103.579H135.894V109.282H136.904C137.894 109.282 138.638 109.04 139.136 108.555C139.634 108.066 139.883 107.345 139.883 106.392ZM146.338 110H142.358V102.861H146.338V103.599H143.188V105.898H146.147V106.631H143.188V109.258H146.338V110ZM148.755 107.031V110H147.925V102.861H149.883C150.758 102.861 151.405 103.029 151.821 103.364C152.241 103.7 152.451 104.204 152.451 104.878C152.451 105.822 151.973 106.46 151.016 106.792L152.954 110H151.973L150.244 107.031H148.755ZM148.755 106.318H149.893C150.479 106.318 150.908 106.203 151.182 105.972C151.455 105.737 151.592 105.387 151.592 104.922C151.592 104.45 151.452 104.11 151.172 103.901C150.895 103.693 150.449 103.589 149.834 103.589H148.755V106.318Z" fill="white"/>
<path d="M89.834 131L87.3496 123.846H87.3027C87.3691 124.908 87.4023 125.904 87.4023 126.834V131H86.1309V122.434H88.1055L90.4844 129.248H90.5195L92.9688 122.434H94.9492V131H93.6016V126.764C93.6016 126.338 93.6113 125.783 93.6309 125.1C93.6543 124.416 93.6738 124.002 93.6895 123.857H93.6426L91.0703 131H89.834ZM99.2441 131.117C98.4355 131.117 97.8047 130.824 97.3516 130.238C96.8984 129.652 96.6719 128.83 96.6719 127.771C96.6719 126.709 96.9004 125.883 97.3574 125.293C97.8184 124.699 98.4551 124.402 99.2676 124.402C100.119 124.402 100.768 124.717 101.213 125.346H101.283C101.217 124.881 101.184 124.514 101.184 124.244V121.883H102.566V131H101.488L101.248 130.15H101.184C100.742 130.795 100.096 131.117 99.2441 131.117ZM99.6133 130.004C100.18 130.004 100.592 129.846 100.85 129.529C101.107 129.209 101.24 128.691 101.248 127.977V127.783C101.248 126.967 101.115 126.387 100.85 126.043C100.584 125.699 100.168 125.527 99.6016 125.527C99.1172 125.527 98.7441 125.725 98.4824 126.119C98.2207 126.51 98.0898 127.068 98.0898 127.795C98.0898 128.514 98.2168 129.062 98.4707 129.441C98.7246 129.816 99.1055 130.004 99.6133 130.004ZM111.502 131L109.018 123.846H108.971C109.037 124.908 109.07 125.904 109.07 126.834V131H107.799V122.434H109.773L112.152 129.248H112.188L114.637 122.434H116.617V131H115.27V126.764C115.27 126.338 115.279 125.783 115.299 125.1C115.322 124.416 115.342 124.002 115.357 123.857H115.311L112.738 131H111.502ZM124.475 127.748C124.475 128.807 124.203 129.633 123.66 130.227C123.117 130.82 122.361 131.117 121.393 131.117C120.787 131.117 120.252 130.98 119.787 130.707C119.322 130.434 118.965 130.041 118.715 129.529C118.465 129.018 118.34 128.424 118.34 127.748C118.34 126.697 118.609 125.877 119.148 125.287C119.688 124.697 120.447 124.402 121.428 124.402C122.365 124.402 123.107 124.705 123.654 125.311C124.201 125.912 124.475 126.725 124.475 127.748ZM119.758 127.748C119.758 129.244 120.311 129.992 121.416 129.992C122.51 129.992 123.057 129.244 123.057 127.748C123.057 126.268 122.506 125.527 121.404 125.527C120.826 125.527 120.406 125.719 120.145 126.102C119.887 126.484 119.758 127.033 119.758 127.748ZM130.416 129.154C130.416 129.787 130.186 130.273 129.725 130.613C129.264 130.949 128.604 131.117 127.744 131.117C126.881 131.117 126.188 130.986 125.664 130.725V129.535C126.426 129.887 127.135 130.062 127.791 130.062C128.639 130.062 129.062 129.807 129.062 129.295C129.062 129.131 129.016 128.994 128.922 128.885C128.828 128.775 128.674 128.662 128.459 128.545C128.244 128.428 127.945 128.295 127.562 128.146C126.816 127.857 126.311 127.568 126.045 127.279C125.783 126.99 125.652 126.615 125.652 126.154C125.652 125.6 125.875 125.17 126.32 124.865C126.77 124.557 127.379 124.402 128.148 124.402C128.91 124.402 129.631 124.557 130.311 124.865L129.865 125.902C129.166 125.613 128.578 125.469 128.102 125.469C127.375 125.469 127.012 125.676 127.012 126.09C127.012 126.293 127.105 126.465 127.293 126.605C127.484 126.746 127.898 126.939 128.535 127.186C129.07 127.393 129.459 127.582 129.701 127.754C129.943 127.926 130.123 128.125 130.24 128.352C130.357 128.574 130.416 128.842 130.416 129.154ZM137.611 131H136.229V127.016C136.229 126.516 136.127 126.143 135.924 125.896C135.725 125.65 135.406 125.527 134.969 125.527C134.391 125.527 133.965 125.701 133.691 126.049C133.422 126.393 133.287 126.971 133.287 127.783V131H131.91V121.883H133.287V124.197C133.287 124.568 133.264 124.965 133.217 125.387H133.305C133.492 125.074 133.752 124.832 134.084 124.66C134.42 124.488 134.811 124.402 135.256 124.402C136.826 124.402 137.611 125.193 137.611 126.775V131ZM142.094 130.016C142.672 130.016 143.086 129.85 143.336 129.518C143.59 129.182 143.717 128.676 143.717 128V127.783C143.717 126.982 143.586 126.406 143.324 126.055C143.066 125.703 142.648 125.527 142.07 125.527C141.578 125.527 141.203 125.723 140.945 126.113C140.688 126.504 140.559 127.064 140.559 127.795C140.559 129.275 141.07 130.016 142.094 130.016ZM141.701 131.117C140.9 131.117 140.273 130.824 139.82 130.238C139.367 129.648 139.141 128.826 139.141 127.771C139.141 126.717 139.371 125.893 139.832 125.299C140.293 124.701 140.928 124.402 141.736 124.402C142.143 124.402 142.506 124.479 142.826 124.631C143.15 124.779 143.439 125.025 143.693 125.369H143.74L143.893 124.52H145.035V133.883H143.652V131.135C143.652 130.963 143.66 130.781 143.676 130.59C143.691 130.398 143.705 130.252 143.717 130.15H143.641C143.234 130.795 142.588 131.117 141.701 131.117ZM151.574 131L151.381 130.15H151.311C151.119 130.451 150.846 130.688 150.49 130.859C150.139 131.031 149.736 131.117 149.283 131.117C148.498 131.117 147.912 130.922 147.525 130.531C147.139 130.141 146.945 129.549 146.945 128.756V124.52H148.334V128.516C148.334 129.012 148.436 129.385 148.639 129.635C148.842 129.881 149.16 130.004 149.594 130.004C150.172 130.004 150.596 129.832 150.865 129.488C151.139 129.141 151.275 128.561 151.275 127.748V124.52H152.658V131H151.574ZM157.908 124.402C158.186 124.402 158.414 124.422 158.594 124.461L158.459 125.744C158.264 125.697 158.061 125.674 157.85 125.674C157.299 125.674 156.852 125.854 156.508 126.213C156.168 126.572 155.998 127.039 155.998 127.613V131H154.621V124.52H155.699L155.881 125.662H155.951C156.166 125.275 156.445 124.969 156.789 124.742C157.137 124.516 157.51 124.402 157.908 124.402ZM168.379 131L167.523 128.621H164.248L163.41 131H161.934L165.139 122.398H166.662L169.867 131H168.379ZM167.154 127.414L166.352 125.082C166.293 124.926 166.211 124.68 166.105 124.344C166.004 124.008 165.934 123.762 165.895 123.605C165.789 124.086 165.635 124.611 165.432 125.182L164.658 127.414H167.154ZM172.229 131H170.852V121.883H172.229V131ZM178.258 131L177.982 130.098H177.936C177.623 130.492 177.309 130.762 176.992 130.906C176.676 131.047 176.27 131.117 175.773 131.117C175.137 131.117 174.639 130.945 174.279 130.602C173.924 130.258 173.746 129.771 173.746 129.143C173.746 128.475 173.994 127.971 174.49 127.631C174.986 127.291 175.742 127.105 176.758 127.074L177.877 127.039V126.693C177.877 126.279 177.779 125.971 177.584 125.768C177.393 125.561 177.094 125.457 176.688 125.457C176.355 125.457 176.037 125.506 175.732 125.604C175.428 125.701 175.135 125.816 174.854 125.949L174.408 124.965C174.76 124.781 175.145 124.643 175.562 124.549C175.98 124.451 176.375 124.402 176.746 124.402C177.57 124.402 178.191 124.582 178.609 124.941C179.031 125.301 179.242 125.865 179.242 126.635V131H178.258ZM176.207 130.062C176.707 130.062 177.107 129.924 177.408 129.646C177.713 129.365 177.865 128.973 177.865 128.469V127.906L177.033 127.941C176.385 127.965 175.912 128.074 175.615 128.27C175.322 128.461 175.176 128.756 175.176 129.154C175.176 129.443 175.262 129.668 175.434 129.828C175.605 129.984 175.863 130.062 176.207 130.062ZM186.625 131H185.242V127.004C185.242 126.508 185.148 126.139 184.961 125.896C184.773 125.65 184.48 125.527 184.082 125.527C183.551 125.527 183.16 125.701 182.91 126.049C182.664 126.393 182.541 126.967 182.541 127.771V131H181.164V124.52H182.242L182.436 125.369H182.506C182.686 125.061 182.945 124.822 183.285 124.654C183.629 124.486 184.006 124.402 184.416 124.402C185.412 124.402 186.072 124.742 186.396 125.422H186.49C186.682 125.102 186.951 124.852 187.299 124.672C187.646 124.492 188.045 124.402 188.494 124.402C189.268 124.402 189.83 124.598 190.182 124.988C190.537 125.379 190.715 125.975 190.715 126.775V131H189.338V127.004C189.338 126.508 189.242 126.139 189.051 125.896C188.863 125.65 188.57 125.527 188.172 125.527C187.637 125.527 187.244 125.695 186.994 126.031C186.748 126.363 186.625 126.875 186.625 127.566V131Z" fill="white"/>
<path d="M27.7305 56.0908C27.7305 57.2295 27.3187 58.1462 26.4951 58.8408C25.6715 59.5283 24.5186 59.9401 23.0361 60.0762V62.2783H21.5645V60.1191C19.8171 60.0833 18.2845 59.7754 16.9668 59.1953V56.3594C17.5898 56.6673 18.3382 56.9395 19.2119 57.1758C20.0928 57.4121 20.877 57.5518 21.5645 57.5947V54.2646L20.8447 53.9854C19.4268 53.4268 18.4206 52.8216 17.8262 52.1699C17.2389 51.5111 16.9453 50.6982 16.9453 49.7314C16.9453 48.693 17.3499 47.8408 18.1592 47.1748C18.9756 46.5016 20.1107 46.0934 21.5645 45.9502V44.3066H23.0361V45.9072C24.6761 45.9788 26.1585 46.3083 27.4834 46.8955L26.4736 49.4092C25.3564 48.9508 24.2106 48.6715 23.0361 48.5713V51.7402C24.4326 52.2773 25.4245 52.7428 26.0117 53.1367C26.6061 53.5306 27.0394 53.9639 27.3115 54.4365C27.5908 54.9092 27.7305 55.4606 27.7305 56.0908ZM24.4971 56.252C24.4971 55.9512 24.3753 55.6969 24.1318 55.4893C23.8883 55.2816 23.5231 55.0667 23.0361 54.8447V57.5195C24.0101 57.3548 24.4971 56.9323 24.4971 56.252ZM20.1787 49.7314C20.1787 50.0465 20.2861 50.3079 20.501 50.5156C20.723 50.7161 21.0775 50.9238 21.5645 51.1387V48.6143C20.6406 48.7503 20.1787 49.1227 20.1787 49.7314ZM31.0068 61L36.9043 48.1094H29.1592V45.3164H40.4277V47.4004L34.4873 61H31.0068ZM47.4316 45.0908C48.9355 45.0908 50.1458 45.4346 51.0625 46.1221C51.9863 46.8024 52.4482 47.7227 52.4482 48.8828C52.4482 49.6849 52.2262 50.401 51.7822 51.0312C51.3382 51.6543 50.6221 52.2129 49.6338 52.707C50.8083 53.3372 51.6497 53.9961 52.1582 54.6836C52.6738 55.3639 52.9316 56.1123 52.9316 56.9287C52.9316 58.2178 52.4268 59.2562 51.417 60.0439C50.4072 60.8245 49.0788 61.2148 47.4316 61.2148C45.7129 61.2148 44.363 60.8496 43.3818 60.1191C42.4007 59.3887 41.9102 58.3538 41.9102 57.0146C41.9102 56.1195 42.1465 55.3245 42.6191 54.6299C43.099 53.9352 43.8652 53.3229 44.918 52.793C44.0228 52.2272 43.3783 51.6221 42.9844 50.9775C42.5905 50.333 42.3936 49.6276 42.3936 48.8613C42.3936 47.737 42.859 46.8275 43.79 46.1328C44.721 45.4382 45.9349 45.0908 47.4316 45.0908ZM44.9824 56.8213C44.9824 57.4372 45.1973 57.917 45.627 58.2607C46.0566 58.6045 46.6439 58.7764 47.3887 58.7764C48.2122 58.7764 48.8281 58.6009 49.2363 58.25C49.6445 57.8919 49.8486 57.4229 49.8486 56.8428C49.8486 56.363 49.6445 55.9154 49.2363 55.5C48.8353 55.0775 48.18 54.6299 47.2705 54.1572C45.7451 54.859 44.9824 55.7471 44.9824 56.8213ZM47.4102 47.5186C46.8444 47.5186 46.3861 47.6654 46.0352 47.959C45.6914 48.2454 45.5195 48.6322 45.5195 49.1191C45.5195 49.5488 45.6556 49.9355 45.9277 50.2793C46.207 50.6159 46.7083 50.9632 47.4316 51.3213C48.1335 50.9919 48.624 50.6553 48.9033 50.3115C49.1826 49.9678 49.3223 49.5703 49.3223 49.1191C49.3223 48.625 49.1432 48.2347 48.7852 47.9482C48.4271 47.6618 47.9688 47.5186 47.4102 47.5186ZM58.6357 58.6904C58.2633 60.137 57.6331 61.8522 56.7451 63.8359H54.3818C54.8473 61.931 55.209 60.1335 55.4668 58.4434H58.4746L58.6357 58.6904ZM71.333 48.8076C71.333 49.7887 71.0358 50.623 70.4414 51.3105C69.847 51.998 69.0127 52.4707 67.9385 52.7285V52.793C69.2061 52.9505 70.1657 53.3372 70.8174 53.9531C71.4691 54.5618 71.7949 55.3854 71.7949 56.4238C71.7949 57.9349 71.2471 59.113 70.1514 59.958C69.0557 60.7959 67.4909 61.2148 65.457 61.2148C63.7526 61.2148 62.2415 60.932 60.9238 60.3662V57.541C61.5326 57.849 62.2021 58.0996 62.9326 58.293C63.6631 58.4863 64.3864 58.583 65.1025 58.583C66.1982 58.583 67.0075 58.3968 67.5303 58.0244C68.0531 57.652 68.3145 57.054 68.3145 56.2305C68.3145 55.4928 68.0137 54.9701 67.4121 54.6621C66.8105 54.3542 65.8509 54.2002 64.5332 54.2002H63.3408V51.6543H64.5547C65.7721 51.6543 66.6602 51.4967 67.2188 51.1816C67.7845 50.8594 68.0674 50.3115 68.0674 49.5381C68.0674 48.3493 67.3226 47.7549 65.833 47.7549C65.3174 47.7549 64.791 47.8408 64.2539 48.0127C63.724 48.1846 63.1331 48.4818 62.4814 48.9043L60.9453 46.6162C62.3776 45.585 64.0856 45.0693 66.0693 45.0693C67.695 45.0693 68.9769 45.3988 69.915 46.0576C70.8604 46.7165 71.333 47.6331 71.333 48.8076ZM79.25 50.9668C80.7682 50.9668 81.9749 51.3929 82.8701 52.2451C83.7725 53.0973 84.2236 54.2646 84.2236 55.7471C84.2236 57.5016 83.6829 58.8516 82.6016 59.7969C81.5202 60.7422 79.9733 61.2148 77.9609 61.2148C76.2135 61.2148 74.8027 60.932 73.7285 60.3662V57.498C74.2943 57.7988 74.9531 58.0459 75.7051 58.2393C76.457 58.4255 77.1696 58.5186 77.8428 58.5186C79.8695 58.5186 80.8828 57.6878 80.8828 56.0264C80.8828 54.4437 79.8337 53.6523 77.7354 53.6523C77.3558 53.6523 76.9368 53.6917 76.4785 53.7705C76.0202 53.8421 75.6478 53.9209 75.3613 54.0068L74.04 53.2979L74.6309 45.2949H83.1494V48.1094H77.542L77.252 51.1924L77.6279 51.1172C78.0648 51.0169 78.6055 50.9668 79.25 50.9668ZM91.8184 50.9668C93.3366 50.9668 94.5433 51.3929 95.4385 52.2451C96.3408 53.0973 96.792 54.2646 96.792 55.7471C96.792 57.5016 96.2513 58.8516 95.1699 59.7969C94.0885 60.7422 92.5417 61.2148 90.5293 61.2148C88.7819 61.2148 87.3711 60.932 86.2969 60.3662V57.498C86.8626 57.7988 87.5215 58.0459 88.2734 58.2393C89.0254 58.4255 89.738 58.5186 90.4111 58.5186C92.4378 58.5186 93.4512 57.6878 93.4512 56.0264C93.4512 54.4437 92.402 53.6523 90.3037 53.6523C89.9242 53.6523 89.5052 53.6917 89.0469 53.7705C88.5885 53.8421 88.2161 53.9209 87.9297 54.0068L86.6084 53.2979L87.1992 45.2949H95.7178V48.1094H90.1104L89.8203 51.1924L90.1963 51.1172C90.6331 51.0169 91.1738 50.9668 91.8184 50.9668ZM99.0479 59.4639C99.0479 58.8623 99.209 58.4076 99.5312 58.0996C99.8535 57.7917 100.323 57.6377 100.938 57.6377C101.533 57.6377 101.991 57.7952 102.313 58.1104C102.643 58.4255 102.808 58.8766 102.808 59.4639C102.808 60.0296 102.643 60.4772 102.313 60.8066C101.984 61.1289 101.526 61.29 100.938 61.29C100.337 61.29 99.8714 61.1325 99.542 60.8174C99.2126 60.4951 99.0479 60.0439 99.0479 59.4639ZM113.152 61H109.833V51.9121L109.865 50.4189L109.919 48.7861C109.368 49.3376 108.984 49.6992 108.77 49.8711L106.965 51.3213L105.364 49.3232L110.424 45.2949H113.152V61ZM119.071 61L124.969 48.1094H117.224V45.3164H128.492V47.4004L122.552 61H119.071Z" fill="white"/>
<path d="M21.7969 31L18.4062 22.1406H18.3516C18.4154 22.8424 18.4473 23.6764 18.4473 24.6426V31H17.374V21.0059H19.124L22.2891 29.25H22.3438L25.5361 21.0059H27.2725V31H26.1104V24.5605C26.1104 23.8223 26.1423 23.0202 26.2061 22.1543H26.1514L22.7334 31H21.7969ZM34.457 31L34.2314 29.9336H34.1768C33.8031 30.403 33.4294 30.722 33.0557 30.8906C32.6865 31.0547 32.224 31.1367 31.668 31.1367C30.9251 31.1367 30.3418 30.9453 29.918 30.5625C29.4987 30.1797 29.2891 29.6351 29.2891 28.9287C29.2891 27.4157 30.499 26.6227 32.9189 26.5498L34.1904 26.5088V26.0439C34.1904 25.4561 34.0628 25.0231 33.8076 24.7451C33.557 24.4626 33.1536 24.3213 32.5977 24.3213C31.9733 24.3213 31.2669 24.5127 30.4785 24.8955L30.1299 24.0273C30.499 23.8268 30.9023 23.6696 31.3398 23.5557C31.7819 23.4417 32.224 23.3848 32.666 23.3848C33.5592 23.3848 34.2201 23.583 34.6484 23.9795C35.0814 24.376 35.2979 25.0117 35.2979 25.8867V31H34.457ZM31.8936 30.2002C32.5999 30.2002 33.1536 30.0065 33.5547 29.6191C33.9603 29.2318 34.1631 28.6895 34.1631 27.9922V27.3154L33.0283 27.3633C32.126 27.3952 31.4743 27.5365 31.0732 27.7871C30.6768 28.0332 30.4785 28.4183 30.4785 28.9424C30.4785 29.3525 30.6016 29.6647 30.8477 29.8789C31.0983 30.0931 31.4469 30.2002 31.8936 30.2002ZM38.7773 31H37.6426V23.5078H38.7773V31ZM37.5469 21.4775C37.5469 21.2178 37.6107 21.0286 37.7383 20.9102C37.8659 20.7871 38.0254 20.7256 38.2168 20.7256C38.3991 20.7256 38.5563 20.7871 38.6885 20.9102C38.8206 21.0332 38.8867 21.2223 38.8867 21.4775C38.8867 21.7327 38.8206 21.9242 38.6885 22.0518C38.5563 22.1748 38.3991 22.2363 38.2168 22.2363C38.0254 22.2363 37.8659 22.1748 37.7383 22.0518C37.6107 21.9242 37.5469 21.7327 37.5469 21.4775ZM46.3105 31V26.1533C46.3105 25.5426 46.1715 25.0869 45.8936 24.7861C45.6156 24.4854 45.1803 24.335 44.5879 24.335C43.804 24.335 43.2298 24.5469 42.8652 24.9707C42.5007 25.3945 42.3184 26.0941 42.3184 27.0693V31H41.1836V23.5078H42.1064L42.291 24.5332H42.3457C42.5781 24.1641 42.904 23.8792 43.3232 23.6787C43.7425 23.4736 44.2096 23.3711 44.7246 23.3711C45.627 23.3711 46.306 23.5898 46.7617 24.0273C47.2174 24.4603 47.4453 25.1553 47.4453 26.1123V31H46.3105ZM53.5908 21.0059H56.4141C57.7402 21.0059 58.6995 21.2041 59.292 21.6006C59.8844 21.9971 60.1807 22.6237 60.1807 23.4805C60.1807 24.0729 60.0143 24.5628 59.6816 24.9502C59.3535 25.333 58.8727 25.5814 58.2393 25.6953V25.7637C59.7568 26.0234 60.5156 26.821 60.5156 28.1562C60.5156 29.0495 60.2126 29.7467 59.6064 30.248C59.0049 30.7493 58.1618 31 57.0771 31H53.5908V21.0059ZM54.7529 25.2852H56.667C57.4873 25.2852 58.0775 25.1576 58.4375 24.9023C58.7975 24.6426 58.9775 24.2074 58.9775 23.5967C58.9775 23.0361 58.777 22.6328 58.376 22.3867C57.9749 22.1361 57.3369 22.0107 56.4619 22.0107H54.7529V25.2852ZM54.7529 26.2695V30.0088H56.8379C57.6445 30.0088 58.2507 29.8538 58.6562 29.5439C59.0664 29.2295 59.2715 28.7396 59.2715 28.0742C59.2715 27.4544 59.0618 26.9987 58.6426 26.707C58.2279 26.4154 57.5944 26.2695 56.7422 26.2695H54.7529ZM67.1055 31L66.8799 29.9336H66.8252C66.4515 30.403 66.0778 30.722 65.7041 30.8906C65.335 31.0547 64.8724 31.1367 64.3164 31.1367C63.5736 31.1367 62.9902 30.9453 62.5664 30.5625C62.1471 30.1797 61.9375 29.6351 61.9375 28.9287C61.9375 27.4157 63.1475 26.6227 65.5674 26.5498L66.8389 26.5088V26.0439C66.8389 25.4561 66.7113 25.0231 66.4561 24.7451C66.2054 24.4626 65.8021 24.3213 65.2461 24.3213C64.6217 24.3213 63.9154 24.5127 63.127 24.8955L62.7783 24.0273C63.1475 23.8268 63.5508 23.6696 63.9883 23.5557C64.4303 23.4417 64.8724 23.3848 65.3145 23.3848C66.2077 23.3848 66.8685 23.583 67.2969 23.9795C67.7298 24.376 67.9463 25.0117 67.9463 25.8867V31H67.1055ZM64.542 30.2002C65.2484 30.2002 65.8021 30.0065 66.2031 29.6191C66.6087 29.2318 66.8115 28.6895 66.8115 27.9922V27.3154L65.6768 27.3633C64.7744 27.3952 64.1227 27.5365 63.7217 27.7871C63.3252 28.0332 63.127 28.4183 63.127 28.9424C63.127 29.3525 63.25 29.6647 63.4961 29.8789C63.7467 30.0931 64.0954 30.2002 64.542 30.2002ZM71.4258 31H70.291V20.3633H71.4258V31ZM78.4395 31L78.2139 29.9336H78.1592C77.7855 30.403 77.4118 30.722 77.0381 30.8906C76.6689 31.0547 76.2064 31.1367 75.6504 31.1367C74.9076 31.1367 74.3242 30.9453 73.9004 30.5625C73.4811 30.1797 73.2715 29.6351 73.2715 28.9287C73.2715 27.4157 74.4814 26.6227 76.9014 26.5498L78.1729 26.5088V26.0439C78.1729 25.4561 78.0452 25.0231 77.79 24.7451C77.5394 24.4626 77.1361 24.3213 76.5801 24.3213C75.9557 24.3213 75.2493 24.5127 74.4609 24.8955L74.1123 24.0273C74.4814 23.8268 74.8848 23.6696 75.3223 23.5557C75.7643 23.4417 76.2064 23.3848 76.6484 23.3848C77.5417 23.3848 78.2025 23.583 78.6309 23.9795C79.0638 24.376 79.2803 25.0117 79.2803 25.8867V31H78.4395ZM75.876 30.2002C76.5824 30.2002 77.1361 30.0065 77.5371 29.6191C77.9427 29.2318 78.1455 28.6895 78.1455 27.9922V27.3154L77.0107 27.3633C76.1084 27.3952 75.4567 27.5365 75.0557 27.7871C74.6592 28.0332 74.4609 28.4183 74.4609 28.9424C74.4609 29.3525 74.584 29.6647 74.8301 29.8789C75.0807 30.0931 75.4294 30.2002 75.876 30.2002ZM86.752 31V26.1533C86.752 25.5426 86.613 25.0869 86.335 24.7861C86.057 24.4854 85.6217 24.335 85.0293 24.335C84.2454 24.335 83.6712 24.5469 83.3066 24.9707C82.9421 25.3945 82.7598 26.0941 82.7598 27.0693V31H81.625V23.5078H82.5479L82.7324 24.5332H82.7871C83.0195 24.1641 83.3454 23.8792 83.7646 23.6787C84.1839 23.4736 84.651 23.3711 85.166 23.3711C86.0684 23.3711 86.7474 23.5898 87.2031 24.0273C87.6589 24.4603 87.8867 25.1553 87.8867 26.1123V31H86.752ZM93.2188 31.1367C92.1341 31.1367 91.2933 30.804 90.6963 30.1387C90.1038 29.4688 89.8076 28.5231 89.8076 27.3018C89.8076 26.0485 90.1084 25.0801 90.71 24.3965C91.3161 23.7129 92.1774 23.3711 93.2939 23.3711C93.654 23.3711 94.014 23.4098 94.374 23.4873C94.734 23.5648 95.0166 23.6559 95.2217 23.7607L94.873 24.7246C94.6224 24.6243 94.349 24.5423 94.0527 24.4785C93.7565 24.4102 93.4945 24.376 93.2666 24.376C91.7445 24.376 90.9834 25.3467 90.9834 27.2881C90.9834 28.2087 91.168 28.915 91.5371 29.4072C91.9108 29.8994 92.4622 30.1455 93.1914 30.1455C93.8158 30.1455 94.4561 30.0111 95.1123 29.7422V30.7471C94.611 31.0068 93.9798 31.1367 93.2188 31.1367ZM100.062 31.1367C98.9541 31.1367 98.0791 30.7995 97.4365 30.125C96.7985 29.4505 96.4795 28.514 96.4795 27.3154C96.4795 26.1077 96.7757 25.1484 97.3682 24.4375C97.9652 23.7266 98.765 23.3711 99.7676 23.3711C100.706 23.3711 101.449 23.681 101.996 24.3008C102.543 24.916 102.816 25.7295 102.816 26.7412V27.459H97.6553C97.6781 28.3385 97.8991 29.0062 98.3184 29.4619C98.7422 29.9176 99.3369 30.1455 100.103 30.1455C100.909 30.1455 101.707 29.9769 102.495 29.6396V30.6514C102.094 30.8245 101.714 30.9476 101.354 31.0205C100.998 31.098 100.567 31.1367 100.062 31.1367ZM99.7539 24.3213C99.1523 24.3213 98.6715 24.5173 98.3115 24.9092C97.9561 25.3011 97.7464 25.8434 97.6826 26.5361H101.6C101.6 25.8206 101.44 25.2738 101.121 24.8955C100.802 24.5127 100.346 24.3213 99.7539 24.3213Z" fill="white"/>
<circle cx="206" cy="28" r="12" fill="#FE6565"/>
<circle cx="222" cy="28" r="12" fill="#FEEF65"/>
<path d="M215 18.252C211.972 20.4303 210 23.9848 210 27.9999C210 32.0149 211.972 35.5694 215 37.7478C223 29.1461 218.333 21.1665 215 18.252Z" fill="#FFB228"/>
<defs>
<linearGradient id="paint0_linear_2_408" x1="18" y1="106.5" x2="176" y2="41.5" gradientUnits="userSpaceOnUse">
<stop stop-color="#8679E4"/>
<stop offset="1" stop-color="#7264D6"/>
</linearGradient>
<linearGradient id="paint1_linear_2_408" x1="18" y1="106.5" x2="176" y2="41.5" gradientUnits="userSpaceOnUse">
<stop stop-color="#30ACEA"/>
<stop offset="1" stop-color="#316FEA"/>
</linearGradient>
</defs>
</svg>
